G04 Layer: TopLayer*
G04 EasyEDA v6.5.57, 2026-09-06 23:00:07*
G04 af616ab2be724892923c897b48c762a0,38ed7e4e68a54b01b9bb1729d698b6ba,10*
G04 Gerber Generator version 0.2*
G04 Scale: 100 percent, Rotated: No, Reflected: No *
G04 Dimensions in millimeters *
G04 leading zeros omitted , absolute positions ,4 integer and 5 decimal *
%FSLAX45Y45*%
%MOMM*%

%ADD10C,0.1010*%
%ADD11C,0.3000*%
%ADD12R,1.6000X0.2000*%
%ADD13R,0.6000X0.2000*%
%ADD14R,0.3000X0.7501*%
%ADD15C,1.0000*%
%ADD16C,0.3000*%
%ADD17C,0.0155*%

%LPD*%
D10*
X4572944Y6477055D02*
G01*
X4572944Y6614027D01*
X4495932Y6691045D01*
X4775200Y7698739D02*
G01*
X4672942Y7596482D01*
X4672942Y6477055D01*
D11*
X4568850Y8019694D02*
G01*
X4585614Y8019694D01*
X4620259Y8054339D01*
X4620259Y8128000D01*
X2581706Y8019694D02*
G01*
X4568845Y8019694D01*
X4775200Y7683500D02*
G01*
X4775200Y7734325D01*
X4820615Y7779689D01*
X6841693Y7779689D01*
X6841693Y7839710D02*
G01*
X4771694Y7839710D01*
X4711700Y7779689D01*
X2581706Y7779689D01*
X6841693Y7959699D02*
G01*
X4731689Y7959699D01*
X4671695Y7899704D01*
X2581706Y7899704D01*
X6841693Y7899704D02*
G01*
X4751704Y7899704D01*
X4691710Y7839710D01*
X2581706Y7839710D01*
X6841693Y8019694D02*
G01*
X4711700Y8019694D01*
X4651705Y7959699D01*
X2581706Y7959699D01*
X2311704Y8049691D02*
G01*
X2311704Y10009708D01*
X2371699Y8049691D02*
G01*
X2371699Y10009708D01*
X2431694Y8049691D02*
G01*
X2431694Y10009708D01*
X2491714Y8049691D02*
G01*
X2491714Y10009708D01*
X2551709Y8049691D02*
G01*
X2551709Y10009708D01*
X7111695Y8049691D02*
G01*
X7111695Y10009708D01*
X7051700Y8049691D02*
G01*
X7051700Y10009708D01*
X6991705Y8049691D02*
G01*
X6991705Y10009708D01*
X6931685Y8049691D02*
G01*
X6931685Y10009708D01*
X6871690Y8049691D02*
G01*
X6871690Y10009708D01*
X6841693Y10279684D02*
G01*
X2581706Y10279684D01*
X6841693Y10219689D02*
G01*
X2581706Y10219689D01*
X6841693Y10159695D02*
G01*
X2581706Y10159695D01*
X6841693Y10099700D02*
G01*
X2581706Y10099700D01*
X6841693Y10039705D02*
G01*
X2581706Y10039705D01*
D12*
G01*
X4622927Y6437045D03*
D13*
G01*
X4572939Y6397040D03*
G01*
X4572939Y6477050D03*
G01*
X4672939Y6477050D03*
G01*
X4672939Y6397040D03*
D14*
G01*
X4775200Y7698739D03*
D11*
G75*
G01*
X2581707Y10279710D02*
G03*
X2311705Y10009708I0J-270002D01*
G75*
G01*
X2581707Y10219690D02*
G03*
X2371700Y10009708I0J-210007D01*
G75*
G01*
X2581707Y10159695D02*
G03*
X2431694Y10009708I-26J-149987D01*
G75*
G01*
X2581707Y10099700D02*
G03*
X2491715Y10009708I0J-89992D01*
G75*
G01*
X2581707Y10039706D02*
G03*
X2551709Y10009708I0J-29998D01*
G75*
G01*
X6841693Y10279710D02*
G02*
X7111695Y10009708I0J-270002D01*
G75*
G01*
X6841693Y10219690D02*
G02*
X7051700Y10009708I0J-210007D01*
G75*
G01*
X6841693Y10159695D02*
G02*
X6991706Y10009708I26J-149987D01*
G75*
G01*
X6841693Y10099700D02*
G02*
X6931685Y10009708I0J-89992D01*
G75*
G01*
X6841693Y10039706D02*
G02*
X6871691Y10009708I0J-29998D01*
G75*
G01*
X6841693Y7779690D02*
G03*
X7111695Y8049692I0J270002D01*
G75*
G01*
X6841693Y7839710D02*
G03*
X7051700Y8049692I0J210007D01*
G75*
G01*
X6841693Y7899705D02*
G03*
X6991706Y8049692I26J149987D01*
G75*
G01*
X6841693Y7959700D02*
G03*
X6931685Y8049692I0J89992D01*
G75*
G01*
X6841693Y8019694D02*
G03*
X6871691Y8049692I0J29998D01*
G75*
G01*
X2581707Y7779690D02*
G02*
X2311705Y8049692I0J270002D01*
G75*
G01*
X2581707Y7839710D02*
G02*
X2371700Y8049692I0J210007D01*
G75*
G01*
X2581707Y7899705D02*
G02*
X2431694Y8049692I-26J149987D01*
G75*
G01*
X2581707Y7959700D02*
G02*
X2491715Y8049692I0J89992D01*
G75*
G01*
X2622347Y8019694D02*
G02*
X2592349Y8049692I0J29998D01*
D15*
G01*
X4620259Y8128000D03*
D16*
G01*
X4495927Y6691045D03*
M02*
